<svg xmlns="http://www.w3.org/2000/svg" version="1.1" xmlns:xlink="http://www.w3.org/1999/xlink" xmlns:svgjs="http://svgjs.dev/svgjs" width="1000" height="697" viewBox="0 0 1000 697"><g transform="matrix(1,0,0,1,-0.0329566854990162,0.28218623481780014)"><svg viewBox="0 0 354 247" data-background-color="#ffffff" preserveAspectRatio="xMidYMid meet" height="697" width="1000" xmlns="http://www.w3.org/2000/svg" xmlns:xlink="http://www.w3.org/1999/xlink"><g id="tight-bounds" transform="matrix(1,0,0,1,0.011666666666656056,-0.09999999999999432)"><svg viewBox="0 0 353.9766666666667 247.2" height="247.2" width="353.9766666666667"><g><svg viewBox="0 0 353.9766666666667 247.2" height="247.2" width="353.9766666666667"><g><svg viewBox="0 0 353.9766666666667 247.2" height="247.2" width="353.9766666666667"><g><svg viewBox="0 0 353.9766666666667 247.2" height="247.2" width="353.9766666666667"><g><svg viewBox="0 0 353.9766666666667 247.2" height="247.2" width="353.9766666666667"><g><svg viewBox="0 0 353.9766666666667 247.2" height="247.2" width="353.9766666666667"><g><svg viewBox="0 0 353.9766666666667 247.2" height="247.2" width="353.9766666666667"><g transform="matrix(1,0,0,1,0,0)"><svg width="353.9766666666667" viewBox="0.9 -35.5 51.550000000000004 36" height="247.2" data-palette-color="#ff0000"><path d="M5.85 0L5.85-1.5 24.25-1.5 13.65-30.65 2.5 0 0.9 0 13.65-35.05 26.4 0 5.85 0ZM31.2-26.35L31.2-26.35Q31.2-31.2 33.65-33.35 36.1-35.5 41.6-35.5L41.6-35.5Q45.45-35.5 47.8-33.5 50.15-31.5 51.2-27.4L51.2-27.4 46.55-23.9 44.1-23.9 49.5-27.95Q48.45-31.3 46.47-32.65 44.5-34 41.6-34L41.6-34Q39.6-34 38.22-33.75 36.85-33.5 35.47-32.77 34.1-32.05 33.4-30.45 32.7-28.85 32.7-26.35L32.7-26.35Q32.7-24.15 34.72-22.45 36.75-20.75 39.65-19.55 42.55-18.35 45.47-17.1 48.4-15.85 50.42-13.9 52.45-11.95 52.45-9.4L52.45-9.4Q52.45-4.4 49.97-1.95 47.5 0.5 41.5 0.5L41.5 0.5Q36.6 0.5 33.8-1.48 31-3.45 29.95-7.6L29.95-7.6 31.35-8.2Q32.35-4.15 34.77-2.58 37.2-1 41.5-1L41.5-1Q46.3-1 48.62-2.85 50.95-4.7 50.95-9.4L50.95-9.4Q50.95-11.6 48.92-13.3 46.9-15 43.97-16.2 41.05-17.4 38.15-18.65 35.25-19.9 33.22-21.85 31.2-23.8 31.2-26.35Z" opacity="1" transform="matrix(1,0,0,1,0,0)" fill="#ff0000" class="undefined-text-0" data-fill-palette-color="primary" id="text-0"></path></svg></g></svg></g></svg></g></svg></g><g></g></svg></g></svg></g></svg></g><defs></defs></svg><rect width="353.9766666666667" height="247.2" fill="none" stroke="none" visibility="hidden"></rect></g></svg></g></svg>